<svg version="1.1" xmlns="http://www.w3.org/2000/svg" xmlns:xlink="http://www.w3.org/1999/xlink" x="0px" y="0px"
	 viewBox="0 0 607.8 251.8" style="enable-background:new 0 0 607.8 251.8;" xml:space="preserve">
<style type="text/css">.st0{fill:#00AEEF;} .st1{fill:#4C4C4C;} .st2{fill:#FFFFFF;}</style>
<g>
	<path class="st0" d="M378.6,7.1h229.2l-30.5,79.7c-5.2,13.6-18.2,22.5-32.7,22.5H315.4l30.5-79.7C351.1,16,364.1,7.1,378.6,7.1z"/>
	<path class="st1" d="M71.7,109.8L71.7,109.8l-65.7,0V7.6h64.3v0c0,8.6-7,15.6-15.6,15.6h-31v27h33.1c4.2,0,7.6,3.4,7.6,7.6v0
		c0,4.2-3.4,7.6-7.6,7.6H23.7v28.7h32.3C64.7,94.1,71.7,101.1,71.7,109.8z"/>
	<path class="st1" d="M84.8,58.5c0-30.7,22.1-52.9,53-52.9c15.5,0,27,4.7,38.5,15v0c-4.5,5.9-12.7,8.2-19.4,5
		c-5.3-2.5-11.4-4-18.6-4c-20.9,0-35.3,15.3-35.3,36.8c0,20.9,14,37.1,34.7,37.1c7.9,0,14.7-2,20.3-5.6c6.5-4.1,15-3.2,20.3,2.3
		l0.3,0.3c-9.9,12.2-23.7,19.1-41.2,19.1C105.8,111.7,84.8,88,84.8,58.5z"/>
	<path class="st1" d="M0,239.3L0,239.3c4.1-6.8,12.6-9.7,19.9-6.7c5.3,2.2,11,3.4,16.9,3.4c10.2,0,19.1-4.7,19.1-13.7
		c0-9.6-10.5-13.7-22.1-17.4c-17.1-5.6-30.5-14.9-30.5-31.1c0-18,15.6-28.1,34.1-28.1c11.9,0,21.9,2.9,33.2,10.4l-0.1,0.2
		c-3.9,6.7-12,9.6-19.4,7.1c-4.2-1.4-8.4-2.1-12.8-2.1c-9,0-17,3.9-17,11.6c0,9.3,10.4,13.2,20.9,16.8c17.7,5.7,31.6,14.3,31.6,31.7
		c0,19.1-16.1,30.4-36.4,30.4C23.4,251.8,10.1,247.3,0,239.3z"/>
	<path class="st1" d="M157.6,249.9L157.6,249.9l-65.7,0V147.7h64.3v0c0,8.6-7,15.6-15.6,15.6h-31v27h33.1c4.2,0,7.6,3.4,7.6,7.6v0
		c0,4.2-3.4,7.6-7.6,7.6h-33.1v28.7H142C150.6,234.2,157.6,241.2,157.6,249.9z"/>
	<path class="st1" d="M227.5,209.1c14.6-4.2,23.6-15.3,23.6-29.6c0-18.2-14.4-31.9-34.7-31.9h-40.1v102.2H194v-38.8v-14.7V163h20.9
		c11,0,18.3,7.2,18.3,16.8c0,10.1-6.9,16.5-18.6,16.5h-14.2l27.2,43.8c3.7,6,10.3,9.7,17.3,9.7h9.1L227.5,209.1z"/>
	<path class="st1" d="M335.2,158.4l-26.1,67.5l-26-67.5c-2.7-7-9.4-11.6-16.8-11.6h-8l37,96.6c2.3,5,9.4,7.3,13.8,7.1
		c4.4,0.2,11.3-2.2,13.6-7.1l37-96.6H352C344.5,146.9,337.9,151.5,335.2,158.4z"/>
	<path class="st1" d="M404.9,147.7h7.5l-34.7,90.6c-2.7,7-9.4,11.6-16.9,11.6h-7.5l34.7-90.6C390.7,152.3,397.4,147.7,404.9,147.7z"
		/>
	<path class="st1" d="M417.6,198.6c0-30.7,22.1-52.9,53-52.9c15.5,0,27,4.7,38.5,15v0c-4.5,5.9-12.7,8.2-19.4,5
		c-5.3-2.5-11.4-4-18.6-4c-20.9,0-35.3,15.3-35.3,36.8c0,20.9,14,37.1,34.7,37.1c7.9,0,14.7-2,20.3-5.6c6.5-4.1,15-3.2,20.3,2.3
		l0.3,0.3c-9.9,12.2-23.7,19.1-41.2,19.1C438.6,251.8,417.6,228.1,417.6,198.6z"/>
	<path class="st1" d="M589.1,249.9L589.1,249.9l-65.7,0V147.7h64.3v0c0,8.6-7,15.6-15.6,15.6h-31v27h33.1c4.2,0,7.6,3.4,7.6,7.6v0
		c0,4.2-3.4,7.6-7.6,7.6h-33.1v28.7h32.3C582.1,234.2,589.1,241.2,589.1,249.9z"/>
	<path class="st1" d="M266.1,5.5v14.4c0,3.3,1.4,6.3,3.7,8.7c8.2,8.2,12.8,20.1,11,33.1c-2.5,17.2-16.7,30.9-33.9,32.8
		c-23.4,2.6-43.2-15.7-43.2-38.5c0-10.7,4.4-20.4,11.4-27.4c2.3-2.3,3.7-5.3,3.7-8.6V5.5c-18.8,8.8-31.9,27.8-32.1,49.9
		c-0.3,29.5,23.2,54.7,52.7,56.3c32.2,1.7,58.8-23.9,58.8-55.7C298.3,33.6,285.1,14.4,266.1,5.5z"/>
	<path class="st1" d="M242.5,65.4L242.5,65.4c-4.5,0-8.2-3.7-8.2-8.2V8.2c0-4.5,3.7-8.2,8.2-8.2h0c4.5,0,8.2,3.7,8.2,8.2v49.1
		C250.7,61.8,247,65.4,242.5,65.4z"/>
	<g>
		<path class="st2" d="M380.3,51.5c-2.5,0-4.4-0.8-5.9-2.3c-2.2-2.2-2.2-4.6-2.2-8.8s0-6.6,2.2-8.8c1.5-1.5,3.3-2.3,5.9-2.3
			c4.1,0,7.2,2.3,8,6.9h-4.4c-0.4-1.8-1.5-3.1-3.6-3.1c-1.2,0-2.1,0.4-2.7,1.1c-0.8,0.9-1.1,2-1.1,6.2s0.3,5.2,1.1,6.2
			c0.6,0.7,1.6,1.1,2.7,1.1c2.1,0,3.2-1.3,3.7-3.1h4.3C387.5,49.2,384.3,51.5,380.3,51.5z"/>
		<path class="st2" d="M392.9,51.4V29.5h14.4v3.8h-10.1v5.1h8.6v3.8h-8.6v5.3h10.1v3.8H392.9z"/>
		<path class="st2" d="M420.9,43.1h-4.2v8.2h-4.3V29.5h8.5c4.5,0,7.2,3.1,7.2,6.8C428.1,40.1,425.4,43.1,420.9,43.1z M420.7,33.3h-4
			v6h4c1.9,0,3.2-1.2,3.2-3C423.8,34.6,422.6,33.3,420.7,33.3z"/>
		<path class="st2" d="M447.1,41.3c1,1,1.3,2.2,1.3,3.8c0,3.8-2.6,6.3-6.7,6.3h-9.1V29.5h8.8c4.1,0,6.7,2.3,6.7,6
			c0,2.1-0.9,3.6-2.7,4.6C446.3,40.6,446.7,40.9,447.1,41.3z M441.1,38.4c1.7,0,2.8-0.9,2.8-2.5c0-1.6-1.1-2.5-2.8-2.5h-4.2v5H441.1
			z M441.4,47.6c1.7,0,2.8-1,2.8-2.7s-1.1-2.7-2.8-2.7h-4.4v5.4H441.4z"/>
		<path class="st2" d="M466.1,51.4v-14l-8.5,14h-3.8V29.5h4.3v14l8.5-14h3.8v21.8H466.1z"/>
		<path class="st2" d="M483.7,51.5c-2.5,0-4.4-0.8-5.9-2.3c-2.2-2.2-2.2-4.6-2.2-8.8s0-6.6,2.2-8.8c1.5-1.5,3.3-2.3,5.9-2.3
			c4.1,0,7.2,2.3,8,6.9h-4.4c-0.4-1.8-1.5-3.1-3.6-3.1c-1.2,0-2.1,0.4-2.7,1.1c-0.8,0.9-1.1,2-1.1,6.2s0.3,5.2,1.1,6.2
			c0.6,0.7,1.6,1.1,2.7,1.1c2.1,0,3.2-1.3,3.7-3.1h4.3C490.9,49.2,487.8,51.5,483.7,51.5z"/>
		<path class="st2" d="M508,51.4v-9.1h-7.4v9.1h-4.3V29.5h4.3v8.9h7.4v-8.9h4.3v21.8H508z"/>
		<path class="st2" d="M526.9,51.4h-8.6V29.5h4.3v8.2h4.3c4.3,0,7.1,2.8,7.1,6.8C534,48.5,531.2,51.4,526.9,51.4z M526.6,41.6h-4v6
			h4c1.9,0,3.2-1.2,3.2-3C529.8,42.8,528.5,41.6,526.6,41.6z M536.4,51.4V29.5h4.3v21.8H536.4z"/>
		<path class="st2" d="M559,51.4v-14l-8.5,14h-3.8V29.5h4.3v14l8.5-14h3.8v21.8H559z M555,28.4c-2.4,0-4.8-1.1-5-4.4h3
			c0.1,1.3,0.9,1.9,2,1.9c1.1,0,1.9-0.6,2-1.9h3C559.9,27.3,557.4,28.4,555,28.4z"/>
		<path class="st2" d="M387.3,91.9V87h-14.3V65.2h4.3v18h7.4v-18h4.3v18h2.5v8.6H387.3z"/>
		<path class="st2" d="M395.7,87V65.2h14.4V69H400v5.1h8.6v3.8H400v5.3h10.1V87H395.7z"/>
		<path class="st2" d="M426.9,87v-9.1h-7.4V87h-4.3V65.2h4.3v8.9h7.4v-8.9h4.3V87H426.9z"/>
		<path class="st2" d="M445.6,69v18h-4.3V69h-5.7v-3.8h15.7V69H445.6z"/>
		<path class="st2" d="M464.2,78.8H460V87h-4.3V65.2h8.5c4.5,0,7.2,3.1,7.2,6.8C471.4,75.7,468.7,78.8,464.2,78.8z M463.9,69h-4v6h4
			c1.9,0,3.2-1.2,3.2-3C467.1,70.2,465.9,69,463.9,69z"/>
	</g>
</g>
</svg>
